<svg width="21" height="22" viewBox="0 0 21 22" fill="none" xmlns="http://www.w3.org/2000/svg">
<path d="M17.2988 10.3467H13.7637C12.005 10.3467 11.1562 9.56793 11.1562 7.95793V3.98543C11.1562 2.37543 12.0137 1.59668 13.7637 1.59668H17.2988C19.0575 1.59668 19.9062 2.37543 19.9062 3.98543V7.94918C19.9062 9.56793 19.0488 10.3467 17.2988 10.3467ZM13.7637 2.90918C12.5912 2.90918 12.4688 3.24168 12.4688 3.98543V7.94918C12.4688 8.70168 12.5912 9.02543 13.7637 9.02543H17.2988C18.4713 9.02543 18.5938 8.69293 18.5938 7.94918V3.98543C18.5938 3.23293 18.4713 2.90918 17.2988 2.90918H13.7637Z" fill="#9EAAC3"/>
<path d="M17.2988 20.4092H13.7637C12.005 20.4092 11.1562 19.5517 11.1562 17.8017V14.2667C11.1562 12.5079 12.0137 11.6592 13.7637 11.6592H17.2988C19.0575 11.6592 19.9062 12.5167 19.9062 14.2667V17.8017C19.9062 19.5517 19.0488 20.4092 17.2988 20.4092ZM13.7637 12.9717C12.7312 12.9717 12.4688 13.2342 12.4688 14.2667V17.8017C12.4688 18.8342 12.7312 19.0967 13.7637 19.0967H17.2988C18.3313 19.0967 18.5938 18.8342 18.5938 17.8017V14.2667C18.5938 13.2342 18.3313 12.9717 17.2988 12.9717H13.7637Z" fill="#9EAAC3"/>
<path d="M7.23625 10.3467H3.70125C1.9425 10.3467 1.09375 9.56793 1.09375 7.95793V3.98543C1.09375 2.37543 1.95125 1.59668 3.70125 1.59668H7.23625C8.995 1.59668 9.84375 2.37543 9.84375 3.98543V7.94918C9.84375 9.56793 8.98625 10.3467 7.23625 10.3467ZM3.70125 2.90918C2.52875 2.90918 2.40625 3.24168 2.40625 3.98543V7.94918C2.40625 8.70168 2.52875 9.02543 3.70125 9.02543H7.23625C8.40875 9.02543 8.53125 8.69293 8.53125 7.94918V3.98543C8.53125 3.23293 8.40875 2.90918 7.23625 2.90918H3.70125Z" fill="#9EAAC3"/>
<path d="M7.23625 20.4092H3.70125C1.9425 20.4092 1.09375 19.5517 1.09375 17.8017V14.2667C1.09375 12.5079 1.95125 11.6592 3.70125 11.6592H7.23625C8.995 11.6592 9.84375 12.5167 9.84375 14.2667V17.8017C9.84375 19.5517 8.98625 20.4092 7.23625 20.4092ZM3.70125 12.9717C2.66875 12.9717 2.40625 13.2342 2.40625 14.2667V17.8017C2.40625 18.8342 2.66875 19.0967 3.70125 19.0967H7.23625C8.26875 19.0967 8.53125 18.8342 8.53125 17.8017V14.2667C8.53125 13.2342 8.26875 12.9717 7.23625 12.9717H3.70125Z" fill="#9EAAC3"/>
</svg>
